<svg id="SvgjsSvg1018" width="288" height="288" xmlns="http://www.w3.org/2000/svg" version="1.1" xmlns:xlink="http://www.w3.org/1999/xlink" xmlns:svgjs="http://svgjs.com/svgjs"><defs id="SvgjsDefs1019"></defs><g id="SvgjsG1020" transform="matrix(0.9167,0,0,0.9167,11.995199205589302,11.995199205589302)"><svg xmlns="http://www.w3.org/2000/svg" viewBox="0 0 50 50" width="288" height="288"><path d="M44 1H6C3.243 1 1 3.243 1 6v38c0 2.757 2.243 5 5 5h21V30h-6v-6h6v-4c0-6.065 4.935-11 11-11h3v6h-3c-2.757 0-5 2.243-5 5v4h7.867l-.75 6H33v19h11c2.757 0 5-2.243 5-5V6c0-2.757-2.243-5-5-5zm3 43c0 1.654-1.346 3-3 3h-9V32h6.883l1.25-10H35v-2c0-1.654 1.346-3 3-3h5V7h-5c-7.168 0-13 5.832-13 13v2h-6v10h6v15H6c-1.654 0-3-1.346-3-3V6c0-1.654 1.346-3 3-3h38c1.654 0 3 1.346 3 3v38z" fill="#ffffff" class="color000 svgShape"></path></svg></g></svg>