<svg id="SvgjsSvg1038" width="288" height="288" xmlns="http://www.w3.org/2000/svg" version="1.1" xmlns:xlink="http://www.w3.org/1999/xlink" xmlns:svgjs="http://svgjs.com/svgjs"><defs id="SvgjsDefs1039"></defs><g id="SvgjsG1040" transform="matrix(0.9167,0,0,0.9167,11.995199364471432,11.995199364471432)"><svg xmlns="http://www.w3.org/2000/svg" viewBox="0 0 50 50" width="288" height="288"><path d="M41 4H9C6.24 4 4 6.24 4 9v32c0 2.76 2.24 5 5 5h32c2.76 0 5-2.24 5-5V9c0-2.76-2.24-5-5-5zM30.65 18c.19 0 .35.17.35.37v4.26c0 .2-.16.37-.35.37H26v8.19c0 .2.18 2.69 2.78 2.69 2.15 0 3.67-1.14 3.69-1.15.05-.04.12-.06.18-.06s.12.02.17.05c.11.06.18.18.18.31v3.7c0 .1-.04.2-.12.26-.09.09-2.56 2.01-7.63 2.01-6.08 0-6.25-6.9-6.25-7.69V23h-2.65c-.19 0-.35-.15-.35-.35v-3.57c0-.15.09-.28.22-.33.06-.02 5.5-2.19 5.5-7.41 0-.2.15-.36.34-.36l3.59.02c.19 0 .35.16.35.35V18h4.65z" fill="#ffffff" class="color000 svgShape"></path></svg></g></svg>